<svg width="760" height="780" viewBox="0 0 760 780" fill="none" xmlns="http://www.w3.org/2000/svg">
<g filter="url(#filter0_d_1_742)">
<rect x="100" y="51" width="560" height="580" rx="8" fill="white"/>
</g>
<g filter="url(#filter1_iiii_1_742)">
<path d="M100 57.7879C100 54.039 103.039 51 106.788 51H653.212C656.961 51 660 54.039 660 57.7879V86.9758H100V57.7879Z" fill="#191C1F"/>
<g clip-path="url(#clip0_1_742)">
<path d="M557.164 74.4001C560.308 74.4001 562.911 71.7913 562.911 68.6529C562.911 65.5089 560.302 62.9058 557.158 62.9058C554.02 62.9058 551.416 65.5089 551.416 68.6529C551.416 71.7913 554.025 74.4001 557.164 74.4001ZM557.164 73.4422C554.504 73.4422 552.38 71.3124 552.38 68.6529C552.38 65.9935 554.499 63.8636 557.158 63.8636C559.817 63.8636 561.947 65.9935 561.953 68.6529C561.959 71.3124 559.823 73.4422 557.164 73.4422ZM557.164 65.785C556.921 65.785 556.741 65.9596 556.741 66.2076V69.0248L556.786 70.2137L556.223 69.5375L555.552 68.8614C555.473 68.7881 555.372 68.7374 555.254 68.7374C555.023 68.7374 554.848 68.9177 554.848 69.1431C554.848 69.2614 554.882 69.3629 554.955 69.4361L556.837 71.3124C556.95 71.4251 557.045 71.4702 557.164 71.4702C557.288 71.4702 557.389 71.4194 557.496 71.3124L559.372 69.4361C559.446 69.3629 559.491 69.2614 559.491 69.1431C559.491 68.9177 559.31 68.7374 559.079 68.7374C558.955 68.7374 558.854 68.7825 558.781 68.8614L558.116 69.5375L557.541 70.2193L557.586 69.0248V66.2076C557.586 65.9596 557.412 65.785 557.164 65.785Z" fill="#737373"/>
<path d="M584.994 70.1856C585.236 70.1856 585.439 69.9827 585.439 69.7461V63.9595L585.405 63.1143L585.788 63.5144L586.639 64.4272C586.718 64.5173 586.836 64.5624 586.943 64.5624C587.18 64.5624 587.355 64.3933 587.355 64.1623C587.355 64.044 587.31 63.9539 587.225 63.8693L585.321 62.0325C585.208 61.9198 585.107 61.8804 584.994 61.8804C584.881 61.8804 584.78 61.9198 584.667 62.0325L582.763 63.8693C582.678 63.9539 582.627 64.044 582.627 64.1623C582.627 64.3933 582.802 64.5624 583.033 64.5624C583.146 64.5624 583.264 64.5173 583.343 64.4272L584.199 63.5144L584.583 63.1143L584.543 63.9595V69.7461C584.543 69.9827 584.752 70.1856 584.994 70.1856ZM581.76 74.5974H588.222C589.4 74.5974 589.992 74.0114 589.992 72.8507V67.2275C589.992 66.0668 589.4 65.4808 588.222 65.4808H586.65V66.3879H588.206C588.763 66.3879 589.085 66.6922 589.085 67.2782V72.8C589.085 73.386 588.763 73.6902 588.206 73.6902H581.771C581.208 73.6902 580.898 73.386 580.898 72.8V67.2782C580.898 66.6922 581.208 66.3879 581.771 66.3879H583.332V65.4808H581.76C580.582 65.4808 579.991 66.0668 579.991 67.2275V72.8507C579.991 74.0114 580.582 74.5974 581.76 74.5974Z" fill="#737373"/>
<path d="M612.824 73.403C613.1 73.403 613.331 73.1833 613.331 72.9128V69.1659H616.971C617.242 69.1659 617.473 68.9349 617.473 68.6588C617.473 68.3827 617.242 68.1573 616.971 68.1573H613.331V64.4047C613.331 64.1343 613.1 63.9146 612.824 63.9146C612.548 63.9146 612.323 64.1343 612.323 64.4047V68.1573H608.677C608.407 68.1573 608.176 68.3827 608.176 68.6588C608.176 68.9349 608.407 69.1659 608.677 69.1659H612.323V72.9128C612.323 73.1833 612.548 73.403 612.824 73.403Z" fill="#737373"/>
<path d="M636.463 71.9547H637.426V72.8168C637.426 73.9775 638.012 74.5635 639.195 74.5635H644.852C646.024 74.5635 646.616 73.9775 646.616 72.8168V67.1147C646.616 65.954 646.024 65.368 644.852 65.368H643.883V64.506C643.883 63.3453 643.291 62.7593 642.12 62.7593H636.463C635.279 62.7593 634.693 63.3453 634.693 64.506V70.208C634.693 71.3687 635.279 71.9547 636.463 71.9547ZM636.474 71.0476C635.91 71.0476 635.6 70.7433 635.6 70.1573V64.5567C635.6 63.9707 635.91 63.6664 636.474 63.6664H642.103C642.66 63.6664 642.976 63.9707 642.976 64.5567V65.368H639.195C638.012 65.368 637.426 65.9484 637.426 67.1147V71.0476H636.474ZM639.206 73.6563C638.649 73.6563 638.333 73.3521 638.333 72.7661V67.1654C638.333 66.5794 638.649 66.2752 639.206 66.2752H644.835C645.393 66.2752 645.709 66.5794 645.709 67.1654V72.7661C645.709 73.3521 645.393 73.6563 644.835 73.6563H639.206Z" fill="#737373"/>
</g>
<g clip-path="url(#clip1_1_742)">
<path d="M204.034 73.3918L199.566 69.0307C199.459 68.9236 199.402 68.7941 199.402 68.6532C199.402 68.5067 199.464 68.3658 199.571 68.2757L204.034 63.909C204.13 63.8132 204.254 63.7568 204.4 63.7568C204.693 63.7568 204.913 63.9822 204.913 64.2752C204.913 64.4104 204.856 64.5457 204.766 64.6414L200.664 68.6532L204.766 72.6649C204.856 72.7607 204.913 72.8903 204.913 73.0312C204.913 73.3242 204.693 73.5439 204.4 73.5439C204.254 73.5439 204.13 73.4876 204.034 73.3918Z" fill="#737373"/>
<path d="M222.315 73.5495C222.462 73.5495 222.585 73.4932 222.681 73.3974L227.149 69.0307C227.256 68.9236 227.313 68.7941 227.313 68.6532C227.313 68.5067 227.256 68.3715 227.149 68.2757L222.687 63.9146C222.585 63.8132 222.462 63.7568 222.315 63.7568C222.022 63.7568 221.802 63.9822 221.802 64.2752C221.802 64.4104 221.859 64.5457 221.949 64.6414L226.051 68.6532L221.949 72.6649C221.859 72.7607 221.802 72.8903 221.802 73.0312C221.802 73.3242 222.022 73.5495 222.315 73.5495Z" fill="#BFBFBF"/>
</g>
<path d="M168.775 73.8482H178.522C179.706 73.8482 180.292 73.2622 180.292 72.1015V65.2218C180.292 64.0611 179.706 63.4751 178.522 63.4751H168.775C167.597 63.4751 167.005 64.0554 167.005 65.2218V72.1015C167.005 73.2678 167.597 73.8482 168.775 73.8482ZM168.786 72.941C168.222 72.941 167.913 72.6424 167.913 72.0564V65.2669C167.913 64.6809 168.222 64.3822 168.786 64.3822H171.299V72.941H168.786ZM178.511 64.3822C179.069 64.3822 179.384 64.6809 179.384 65.2669V72.0564C179.384 72.6424 179.069 72.941 178.511 72.941H172.184V64.3822H178.511ZM170.211 66.4726C170.386 66.4726 170.533 66.3205 170.533 66.1571C170.533 65.9881 170.386 65.8416 170.211 65.8416H169.006C168.837 65.8416 168.685 65.9881 168.685 66.1571C168.685 66.3205 168.837 66.4726 169.006 66.4726H170.211ZM170.211 67.932C170.386 67.932 170.533 67.7798 170.533 67.6108C170.533 67.4418 170.386 67.3009 170.211 67.3009H169.006C168.837 67.3009 168.685 67.4418 168.685 67.6108C168.685 67.7798 168.837 67.932 169.006 67.932H170.211ZM170.211 69.3857C170.386 69.3857 170.533 69.2448 170.533 69.0758C170.533 68.9067 170.386 68.7602 170.211 68.7602H169.006C168.837 68.7602 168.685 68.9067 168.685 69.0758C168.685 69.2448 168.837 69.3857 169.006 69.3857H170.211Z" fill="#737373"/>
<g filter="url(#filter2_i_1_742)">
<path fill-rule="evenodd" clip-rule="evenodd" d="M118.327 72.7211C120.577 72.7211 122.4 70.8977 122.4 68.6484C122.4 66.3991 120.577 64.5757 118.327 64.5757C116.078 64.5757 114.255 66.3991 114.255 68.6484C114.255 70.8977 116.078 72.7211 118.327 72.7211Z" fill="#EE6A5F"/>
</g>
<path d="M122.23 68.6484C122.23 70.804 120.483 72.5514 118.327 72.5514C116.172 72.5514 114.424 70.804 114.424 68.6484C114.424 66.4928 116.172 64.7454 118.327 64.7454C120.483 64.7454 122.23 66.4928 122.23 68.6484Z" stroke="#CE5347" stroke-width="0.339394"/>
<g filter="url(#filter3_i_1_742)">
<path fill-rule="evenodd" clip-rule="evenodd" d="M131.903 72.7211C134.152 72.7211 135.976 70.8977 135.976 68.6484C135.976 66.3991 134.152 64.5757 131.903 64.5757C129.654 64.5757 127.83 66.3991 127.83 68.6484C127.83 70.8977 129.654 72.7211 131.903 72.7211Z" fill="#F5BD4F"/>
</g>
<path d="M135.806 68.6484C135.806 70.804 134.059 72.5514 131.903 72.5514C129.747 72.5514 128 70.804 128 68.6484C128 66.4928 129.747 64.7454 131.903 64.7454C134.059 64.7454 135.806 66.4928 135.806 68.6484Z" stroke="#D6A243" stroke-width="0.339394"/>
<g filter="url(#filter4_i_1_742)">
<path fill-rule="evenodd" clip-rule="evenodd" d="M145.479 72.7211C147.728 72.7211 149.552 70.8977 149.552 68.6484C149.552 66.3991 147.728 64.5757 145.479 64.5757C143.229 64.5757 141.406 66.3991 141.406 68.6484C141.406 70.8977 143.229 72.7211 145.479 72.7211Z" fill="#61C454"/>
</g>
<path d="M149.382 68.6484C149.382 70.804 147.634 72.5514 145.479 72.5514C143.323 72.5514 141.576 70.804 141.576 68.6484C141.576 66.4928 143.323 64.7454 145.479 64.7454C147.634 64.7454 149.382 66.4928 149.382 68.6484Z" stroke="#58A942" stroke-width="0.339394"/>
<g clip-path="url(#clip2_1_742)">
<path d="M259.95 74.4959C260.04 74.4959 260.187 74.4621 260.328 74.3832C263.534 72.5858 264.632 71.8251 264.632 69.7686V65.4582C264.632 64.8666 264.379 64.6806 263.9 64.4778C263.235 64.2017 261.088 63.4298 260.423 63.1988C260.271 63.1481 260.108 63.1143 259.95 63.1143C259.792 63.1143 259.629 63.1593 259.482 63.1988C258.817 63.3903 256.665 64.2073 256 64.4778C255.527 64.675 255.268 64.8666 255.268 65.4582V69.7686C255.268 71.8251 256.372 72.5802 259.572 74.3832C259.719 74.4621 259.86 74.4959 259.95 74.4959ZM260.175 64.0721C261.026 64.4102 262.677 65.0074 263.55 65.3061C263.703 65.3624 263.736 65.4413 263.736 65.6329V69.5601C263.736 71.3011 262.902 71.7575 260.299 73.3408C260.136 73.4422 260.046 73.4704 259.956 73.476V64.0214C260.012 64.0214 260.085 64.0383 260.175 64.0721Z" fill="#737373"/>
<rect x="277.259" y="59.1455" width="205.673" height="19.0061" rx="4.07273" fill="black" fill-opacity="0.05"/>
<g clip-path="url(#clip3_1_742)">
<path d="M353.023 72.5282H356.81C357.323 72.5282 357.573 72.2737 357.573 71.7169V68.7975C357.573 68.2964 357.367 68.0379 356.941 67.9941V66.9919C356.941 65.4924 355.959 64.7686 354.917 64.7686C353.875 64.7686 352.892 65.4924 352.892 66.9919V68.014C352.502 68.0737 352.26 68.3282 352.26 68.7975V71.7169C352.26 72.2737 352.51 72.5282 353.023 72.5282ZM353.533 66.9083C353.533 65.91 354.173 65.3811 354.917 65.3811C355.66 65.3811 356.301 65.91 356.301 66.9083V67.9901L353.533 67.9941V66.9083Z" fill="#9E9E9E"/>
<path d="M363.32 70.1805V67.3352H364.06V72.1484H363.32V71.3337H363.27C363.157 71.5781 362.982 71.786 362.743 71.9573C362.505 72.1265 362.204 72.2111 361.841 72.2111C361.54 72.2111 361.273 72.1453 361.039 72.0137C360.805 71.88 360.621 71.6794 360.487 71.412C360.354 71.1425 360.287 70.8031 360.287 70.3936V67.3352H361.026V70.3435C361.026 70.6944 361.124 70.9744 361.321 71.1833C361.519 71.3922 361.772 71.4966 362.079 71.4966C362.263 71.4966 362.45 71.4496 362.64 71.3556C362.832 71.2616 362.993 71.1175 363.123 70.9232C363.254 70.7289 363.32 70.4814 363.32 70.1805ZM366.118 69.253V72.1484H365.379V67.3352H366.093V68.0873H366.156C366.269 67.8429 366.44 67.6465 366.67 67.4982C366.9 67.3477 367.196 67.2725 367.56 67.2725C367.886 67.2725 368.171 67.3394 368.415 67.4731C368.66 67.6047 368.85 67.8053 368.986 68.0747C369.121 68.3421 369.189 68.6806 369.189 69.09V72.1484H368.45V69.1402C368.45 68.7621 368.352 68.4675 368.155 68.2565C367.959 68.0434 367.689 67.9369 367.347 67.9369C367.111 67.9369 366.9 67.988 366.714 68.0904C366.53 68.1928 366.385 68.3421 366.278 68.5385C366.172 68.7349 366.118 68.973 366.118 69.253ZM370.505 72.1484V67.3352H371.245V72.1484H370.505ZM370.881 66.533C370.737 66.533 370.613 66.4839 370.508 66.3857C370.406 66.2875 370.355 66.1695 370.355 66.0316C370.355 65.8938 370.406 65.7757 370.508 65.6775C370.613 65.5793 370.737 65.5303 370.881 65.5303C371.026 65.5303 371.149 65.5793 371.251 65.6775C371.356 65.7757 371.408 65.8938 371.408 66.0316C371.408 66.1695 371.356 66.2875 371.251 66.3857C371.149 66.4839 371.026 66.533 370.881 66.533ZM375.973 68.4132L375.309 68.6012C375.267 68.4905 375.206 68.3829 375.124 68.2784C375.045 68.1719 374.936 68.0841 374.798 68.0152C374.66 67.9463 374.484 67.9118 374.269 67.9118C373.974 67.9118 373.729 67.9797 373.532 68.1155C373.338 68.2492 373.241 68.4194 373.241 68.6263C373.241 68.8101 373.308 68.9553 373.441 69.0618C373.575 69.1684 373.784 69.2572 374.068 69.3282L374.783 69.5037C375.213 69.6081 375.534 69.7679 375.745 69.9831C375.956 70.1962 376.061 70.4709 376.061 70.8073C376.061 71.083 375.982 71.3295 375.823 71.5468C375.666 71.764 375.447 71.9354 375.165 72.0607C374.883 72.186 374.555 72.2487 374.181 72.2487C373.69 72.2487 373.284 72.1422 372.962 71.9291C372.64 71.716 372.437 71.4047 372.351 70.9953L373.053 70.8198C373.12 71.0788 373.246 71.2731 373.432 71.4026C373.62 71.5322 373.866 71.5969 374.168 71.5969C374.513 71.5969 374.787 71.5238 374.989 71.3776C375.194 71.2292 375.297 71.0517 375.297 70.8449C375.297 70.6777 375.238 70.5378 375.121 70.425C375.004 70.3101 374.824 70.2244 374.582 70.168L373.78 69.98C373.339 69.8755 373.015 69.7136 372.808 69.4943C372.604 69.2728 372.501 68.996 372.501 68.6639C372.501 68.3923 372.578 68.152 372.73 67.9431C372.885 67.7342 373.095 67.5702 373.36 67.4512C373.627 67.3321 373.93 67.2725 374.269 67.2725C374.745 67.2725 375.119 67.377 375.391 67.5859C375.664 67.7948 375.859 68.0706 375.973 68.4132ZM379.094 72.2487C378.66 72.2487 378.279 72.1453 377.951 71.9385C377.625 71.7317 377.37 71.4423 377.186 71.0705C377.004 70.6986 376.913 70.2641 376.913 69.7669C376.913 69.2655 377.004 68.8279 377.186 68.4539C377.37 68.08 377.625 67.7896 377.951 67.5828C378.279 67.376 378.66 67.2725 379.094 67.2725C379.529 67.2725 379.909 67.376 380.235 67.5828C380.563 67.7896 380.818 68.08 381 68.4539C381.184 68.8279 381.275 69.2655 381.275 69.7669C381.275 70.2641 381.184 70.6986 381 71.0705C380.818 71.4423 380.563 71.7317 380.235 71.9385C379.909 72.1453 379.529 72.2487 379.094 72.2487ZM379.094 71.5844C379.425 71.5844 379.696 71.4998 379.909 71.3306C380.122 71.1614 380.28 70.9389 380.382 70.6631C380.485 70.3873 380.536 70.0886 380.536 69.7669C380.536 69.4452 380.485 69.1454 380.382 68.8675C380.28 68.5897 380.122 68.3651 379.909 68.1938C379.696 68.0225 379.425 67.9369 379.094 67.9369C378.764 67.9369 378.493 68.0225 378.28 68.1938C378.067 68.3651 377.909 68.5897 377.807 68.8675C377.704 69.1454 377.653 69.4452 377.653 69.7669C377.653 70.0886 377.704 70.3873 377.807 70.6631C377.909 70.9389 378.067 71.1614 378.28 71.3306C378.493 71.4998 378.764 71.5844 379.094 71.5844ZM384.324 72.2487C383.873 72.2487 383.485 72.1422 383.159 71.9291C382.833 71.716 382.582 71.4225 382.407 71.0485C382.231 70.6746 382.143 70.2474 382.143 69.7669C382.143 69.2781 382.233 68.8467 382.413 68.4727C382.595 68.0967 382.847 67.8032 383.171 67.5922C383.497 67.3791 383.877 67.2725 384.312 67.2725C384.65 67.2725 384.955 67.3352 385.227 67.4606C385.498 67.5859 385.721 67.7614 385.894 67.987C386.068 68.2126 386.175 68.4758 386.217 68.7767H385.478C385.421 68.5573 385.296 68.363 385.102 68.1938C384.909 68.0225 384.65 67.9369 384.324 67.9369C384.036 67.9369 383.783 68.0121 383.566 68.1625C383.351 68.3108 383.183 68.5208 383.062 68.7923C382.942 69.0618 382.883 69.3783 382.883 69.7418C382.883 70.1137 382.941 70.4375 383.058 70.7132C383.178 70.989 383.345 71.2031 383.56 71.3556C383.777 71.5081 384.032 71.5844 384.324 71.5844C384.517 71.5844 384.691 71.551 384.848 71.4841C385.004 71.4173 385.137 71.3212 385.246 71.1958C385.354 71.0705 385.432 70.9201 385.478 70.7446H386.217C386.175 71.0287 386.072 71.2846 385.907 71.5123C385.744 71.7379 385.528 71.9176 385.258 72.0513C384.991 72.1829 384.68 72.2487 384.324 72.2487ZM387.263 72.1484V67.3352H388.002V72.1484H387.263ZM387.639 66.533C387.495 66.533 387.371 66.4839 387.266 66.3857C387.164 66.2875 387.113 66.1695 387.113 66.0316C387.113 65.8938 387.164 65.7757 387.266 65.6775C387.371 65.5793 387.495 65.5303 387.639 65.5303C387.783 65.5303 387.906 65.5793 388.009 65.6775C388.113 65.7757 388.165 65.8938 388.165 66.0316C388.165 66.1695 388.113 66.2875 388.009 66.3857C387.906 66.4839 387.783 66.533 387.639 66.533ZM390.738 72.2612C390.433 72.2612 390.156 72.2038 389.908 72.0889C389.659 71.9719 389.462 71.8037 389.315 71.5844C389.169 71.3629 389.096 71.0955 389.096 70.7822C389.096 70.5064 389.15 70.2829 389.259 70.1116C389.368 69.9382 389.513 69.8024 389.695 69.7042C389.876 69.606 390.077 69.5329 390.296 69.4849C390.518 69.4347 390.74 69.395 390.964 69.3658C391.256 69.3282 391.493 69.3 391.675 69.2812C391.859 69.2603 391.993 69.2258 392.076 69.1778C392.162 69.1297 392.205 69.0462 392.205 68.9271V68.902C392.205 68.5928 392.12 68.3526 391.951 68.1813C391.784 68.01 391.53 67.9243 391.189 67.9243C390.836 67.9243 390.559 68.0016 390.359 68.1562C390.158 68.3108 390.017 68.4758 389.936 68.6513L389.234 68.4006C389.359 68.1082 389.526 67.8805 389.735 67.7175C389.946 67.5525 390.176 67.4376 390.425 67.3728C390.675 67.306 390.922 67.2725 391.164 67.2725C391.319 67.2725 391.496 67.2913 391.697 67.3289C391.9 67.3645 392.095 67.4386 392.283 67.5514C392.473 67.6642 392.631 67.8345 392.756 68.0622C392.881 68.2899 392.944 68.5949 392.944 68.9772V72.1484H392.205V71.4966H392.167C392.117 71.6011 392.033 71.7129 391.916 71.8319C391.799 71.951 391.644 72.0523 391.449 72.1359C391.255 72.2195 391.018 72.2612 390.738 72.2612ZM390.851 71.5969C391.143 71.5969 391.39 71.5395 391.59 71.4246C391.793 71.3097 391.946 71.1614 392.048 70.9796C392.152 70.7979 392.205 70.6067 392.205 70.4062V69.7293C392.173 69.7669 392.104 69.8014 391.998 69.8327C391.893 69.8619 391.772 69.8881 391.634 69.911C391.498 69.9319 391.366 69.9507 391.236 69.9674C391.109 69.9821 391.005 69.9946 390.926 70.005C390.734 70.0301 390.554 70.0709 390.387 70.1273C390.222 70.1816 390.088 70.2641 389.986 70.3748C389.886 70.4834 389.836 70.6318 389.836 70.8198C389.836 71.0767 389.931 71.271 390.121 71.4026C390.313 71.5322 390.556 71.5969 390.851 71.5969ZM394.998 65.7308V72.1484H394.259V65.7308H394.998ZM396.856 72.1986C396.702 72.1986 396.569 72.1432 396.458 72.0325C396.348 71.9218 396.292 71.7891 396.292 71.6345C396.292 71.4799 396.348 71.3473 396.458 71.2366C396.569 71.1258 396.702 71.0705 396.856 71.0705C397.011 71.0705 397.144 71.1258 397.254 71.2366C397.365 71.3473 397.42 71.4799 397.42 71.6345C397.42 71.7369 397.394 71.8309 397.342 71.9166C397.292 72.0022 397.224 72.0711 397.138 72.1234C397.055 72.1735 396.961 72.1986 396.856 72.1986ZM400.668 72.2487C400.216 72.2487 399.828 72.1422 399.502 71.9291C399.176 71.716 398.925 71.4225 398.75 71.0485C398.574 70.6746 398.487 70.2474 398.487 69.7669C398.487 69.2781 398.576 68.8467 398.756 68.4727C398.938 68.0967 399.191 67.8032 399.514 67.5922C399.84 67.3791 400.22 67.2725 400.655 67.2725C400.993 67.2725 401.298 67.3352 401.57 67.4606C401.842 67.5859 402.064 67.7614 402.237 67.987C402.411 68.2126 402.518 68.4758 402.56 68.7767H401.821C401.764 68.5573 401.639 68.363 401.445 68.1938C401.252 68.0225 400.993 67.9369 400.668 67.9369C400.379 67.9369 400.126 68.0121 399.909 68.1625C399.694 68.3108 399.526 68.5208 399.405 68.7923C399.286 69.0618 399.226 69.3783 399.226 69.7418C399.226 70.1137 399.285 70.4375 399.402 70.7132C399.521 70.989 399.688 71.2031 399.903 71.3556C400.12 71.5081 400.375 71.5844 400.668 71.5844C400.86 71.5844 401.034 71.551 401.191 71.4841C401.348 71.4173 401.48 71.3212 401.589 71.1958C401.697 71.0705 401.775 70.9201 401.821 70.7446H402.56C402.518 71.0287 402.415 71.2846 402.25 71.5123C402.087 71.7379 401.871 71.9176 401.601 72.0513C401.334 72.1829 401.023 72.2487 400.668 72.2487ZM405.022 72.2612C404.717 72.2612 404.441 72.2038 404.192 72.0889C403.943 71.9719 403.746 71.8037 403.6 71.5844C403.454 71.3629 403.38 71.0955 403.38 70.7822C403.38 70.5064 403.435 70.2829 403.543 70.1116C403.652 69.9382 403.797 69.8024 403.979 69.7042C404.161 69.606 404.361 69.5329 404.581 69.4849C404.802 69.4347 405.025 69.395 405.248 69.3658C405.541 69.3282 405.778 69.3 405.959 69.2812C406.143 69.2603 406.277 69.2258 406.36 69.1778C406.446 69.1297 406.489 69.0462 406.489 68.9271V68.902C406.489 68.5928 406.404 68.3526 406.235 68.1813C406.068 68.01 405.814 67.9243 405.474 67.9243C405.121 67.9243 404.844 68.0016 404.643 68.1562C404.443 68.3108 404.302 68.4758 404.22 68.6513L403.518 68.4006C403.644 68.1082 403.811 67.8805 404.02 67.7175C404.231 67.5525 404.46 67.4376 404.709 67.3728C404.96 67.306 405.206 67.2725 405.449 67.2725C405.603 67.2725 405.781 67.2913 405.981 67.3289C406.184 67.3645 406.379 67.4386 406.567 67.5514C406.757 67.6642 406.915 67.8345 407.04 68.0622C407.166 68.2899 407.228 68.5949 407.228 68.9772V72.1484H406.489V71.4966H406.451C406.401 71.6011 406.318 71.7129 406.201 71.8319C406.084 71.951 405.928 72.0523 405.734 72.1359C405.539 72.2195 405.302 72.2612 405.022 72.2612ZM405.135 71.5969C405.428 71.5969 405.674 71.5395 405.875 71.4246C406.077 71.3097 406.23 71.1614 406.332 70.9796C406.437 70.7979 406.489 70.6067 406.489 70.4062V69.7293C406.458 69.7669 406.389 69.8014 406.282 69.8327C406.178 69.8619 406.057 69.8881 405.919 69.911C405.783 69.9319 405.65 69.9507 405.521 69.9674C405.393 69.9821 405.29 69.9946 405.21 70.005C405.018 70.0301 404.839 70.0709 404.671 70.1273C404.506 70.1816 404.373 70.2641 404.27 70.3748C404.17 70.4834 404.12 70.6318 404.12 70.8198C404.12 71.0767 404.215 71.271 404.405 71.4026C404.597 71.5322 404.841 71.5969 405.135 71.5969Z" fill="#4C4C4C"/>
</g>
<path d="M474.979 68.3874C475.078 68.3874 475.154 68.3555 475.209 68.2959L476.848 66.6493C476.92 66.5817 476.947 66.5021 476.947 66.4107C476.947 66.3232 476.912 66.2357 476.848 66.172L475.209 64.5095C475.154 64.4459 475.074 64.4141 474.979 64.4141C474.8 64.4141 474.664 64.5572 474.664 64.7402C474.664 64.8237 474.696 64.9033 474.752 64.9669L475.814 66.0089C475.587 65.9692 475.356 65.9453 475.126 65.9453C473.177 65.9453 471.61 67.5084 471.61 69.4572C471.61 71.4101 473.177 72.9771 475.126 72.9771C477.075 72.9771 478.638 71.4101 478.638 69.4572C478.638 69.2663 478.502 69.1271 478.308 69.1271C478.121 69.1271 477.997 69.2663 477.997 69.4572C477.997 71.0561 476.721 72.3368 475.126 72.3368C473.531 72.3368 472.25 71.0561 472.25 69.4572C472.25 67.8624 473.531 66.5857 475.126 66.5857C475.428 66.5857 475.706 66.6095 475.945 66.6612L474.756 67.8425C474.696 67.9061 474.664 67.9857 474.664 68.0692C474.664 68.2521 474.8 68.3874 474.979 68.3874Z" fill="#797979"/>
</g>
</g>
<defs>
<filter id="filter0_d_1_742" x="0" y="0" width="760" height="780" filterUnits="userSpaceOnUse" color-interpolation-filters="sRGB">
<feFlood flood-opacity="0" result="BackgroundImageFix"/>
<feColorMatrix in="SourceAlpha" type="matrix" values="0 0 0 0 0 0 0 0 0 0 0 0 0 0 0 0 0 0 127 0" result="hardAlpha"/>
<feOffset dy="49"/>
<feGaussianBlur stdDeviation="50"/>
<feComposite in2="hardAlpha" operator="out"/>
<feColorMatrix type="matrix" values="0 0 0 0 0.812435 0 0 0 0 0.812435 0 0 0 0 0.812435 0 0 0 0.25 0"/>
<feBlend mode="normal" in2="BackgroundImageFix" result="effect1_dropShadow_1_742"/>
<feBlend mode="normal" in="SourceGraphic" in2="effect1_dropShadow_1_742" result="shape"/>
</filter>
<filter id="filter1_iiii_1_742" x="100" y="51" width="560" height="35.9756" filterUnits="userSpaceOnUse" color-interpolation-filters="sRGB">
<feFlood flood-opacity="0" result="BackgroundImageFix"/>
<feBlend mode="normal" in="SourceGraphic" in2="BackgroundImageFix" result="shape"/>
<feColorMatrix in="SourceAlpha" type="matrix" values="0 0 0 0 0 0 0 0 0 0 0 0 0 0 0 0 0 0 127 0" result="hardAlpha"/>
<feOffset dx="0.678788"/>
<feComposite in2="hardAlpha" operator="arithmetic" k2="-1" k3="1"/>
<feColorMatrix type="matrix" values="0 0 0 0 0.278431 0 0 0 0 0.286275 0 0 0 0 0.298039 0 0 0 1 0"/>
<feBlend mode="normal" in2="shape" result="effect1_innerShadow_1_742"/>
<feColorMatrix in="SourceAlpha" type="matrix" values="0 0 0 0 0 0 0 0 0 0 0 0 0 0 0 0 0 0 127 0" result="hardAlpha"/>
<feOffset dx="-0.678788"/>
<feComposite in2="hardAlpha" operator="arithmetic" k2="-1" k3="1"/>
<feColorMatrix type="matrix" values="0 0 0 0 0.278431 0 0 0 0 0.286275 0 0 0 0 0.294118 0 0 0 1 0"/>
<feBlend mode="normal" in2="effect1_innerShadow_1_742" result="effect2_innerShadow_1_742"/>
<feColorMatrix in="SourceAlpha" type="matrix" values="0 0 0 0 0 0 0 0 0 0 0 0 0 0 0 0 0 0 127 0" result="hardAlpha"/>
<feOffset dy="0.678788"/>
<feComposite in2="hardAlpha" operator="arithmetic" k2="-1" k3="1"/>
<feColorMatrix type="matrix" values="0 0 0 0 1 0 0 0 0 1 0 0 0 0 1 0 0 0 0.4 0"/>
<feBlend mode="normal" in2="effect2_innerShadow_1_742" result="effect3_innerShadow_1_742"/>
<feColorMatrix in="SourceAlpha" type="matrix" values="0 0 0 0 0 0 0 0 0 0 0 0 0 0 0 0 0 0 127 0" result="hardAlpha"/>
<feOffset dy="0.339394"/>
<feComposite in2="hardAlpha" operator="arithmetic" k2="-1" k3="1"/>
<feColorMatrix type="matrix" values="0 0 0 0 1 0 0 0 0 1 0 0 0 0 1 0 0 0 0.4 0"/>
<feBlend mode="normal" in2="effect3_innerShadow_1_742" result="effect4_innerShadow_1_742"/>
</filter>
<filter id="filter2_i_1_742" x="114.255" y="64.5757" width="8.14545" height="8.14551" filterUnits="userSpaceOnUse" color-interpolation-filters="sRGB">
<feFlood flood-opacity="0" result="BackgroundImageFix"/>
<feBlend mode="normal" in="SourceGraphic" in2="BackgroundImageFix" result="shape"/>
<feColorMatrix in="SourceAlpha" type="matrix" values="0 0 0 0 0 0 0 0 0 0 0 0 0 0 0 0 0 0 127 0" result="hardAlpha"/>
<feOffset/>
<feGaussianBlur stdDeviation="2.03636"/>
<feComposite in2="hardAlpha" operator="arithmetic" k2="-1" k3="1"/>
<feColorMatrix type="matrix" values="0 0 0 0 0.92549 0 0 0 0 0.427451 0 0 0 0 0.384314 0 0 0 1 0"/>
<feBlend mode="normal" in2="shape" result="effect1_innerShadow_1_742"/>
</filter>
<filter id="filter3_i_1_742" x="127.83" y="64.5757" width="8.14545" height="8.14551" filterUnits="userSpaceOnUse" color-interpolation-filters="sRGB">
<feFlood flood-opacity="0" result="BackgroundImageFix"/>
<feBlend mode="normal" in="SourceGraphic" in2="BackgroundImageFix" result="shape"/>
<feColorMatrix in="SourceAlpha" type="matrix" values="0 0 0 0 0 0 0 0 0 0 0 0 0 0 0 0 0 0 127 0" result="hardAlpha"/>
<feOffset/>
<feGaussianBlur stdDeviation="2.03636"/>
<feComposite in2="hardAlpha" operator="arithmetic" k2="-1" k3="1"/>
<feColorMatrix type="matrix" values="0 0 0 0 0.960784 0 0 0 0 0.768627 0 0 0 0 0.317647 0 0 0 1 0"/>
<feBlend mode="normal" in2="shape" result="effect1_innerShadow_1_742"/>
</filter>
<filter id="filter4_i_1_742" x="141.406" y="64.5757" width="8.14545" height="8.14551" filterUnits="userSpaceOnUse" color-interpolation-filters="sRGB">
<feFlood flood-opacity="0" result="BackgroundImageFix"/>
<feBlend mode="normal" in="SourceGraphic" in2="BackgroundImageFix" result="shape"/>
<feColorMatrix in="SourceAlpha" type="matrix" values="0 0 0 0 0 0 0 0 0 0 0 0 0 0 0 0 0 0 127 0" result="hardAlpha"/>
<feOffset/>
<feGaussianBlur stdDeviation="2.03636"/>
<feComposite in2="hardAlpha" operator="arithmetic" k2="-1" k3="1"/>
<feColorMatrix type="matrix" values="0 0 0 0 0.407843 0 0 0 0 0.8 0 0 0 0 0.345098 0 0 0 1 0"/>
<feBlend mode="normal" in2="shape" result="effect1_innerShadow_1_742"/>
</filter>
<clipPath id="clip0_1_742">
<rect width="105.891" height="19.0061" fill="white" transform="translate(545.964 59.1455)"/>
</clipPath>
<clipPath id="clip1_1_742">
<rect width="44.8" height="19.0061" fill="white" transform="translate(190.958 59.1455)"/>
</clipPath>
<clipPath id="clip2_1_742">
<rect width="262.5" height="19.0061" fill="white" transform="translate(248.75 59.1455)"/>
</clipPath>
<clipPath id="clip3_1_742">
<rect x="352.26" y="63.1484" width="56.35" height="11" fill="white"/>
</clipPath>
</defs>
</svg>
