<svg width="56" height="57" viewBox="0 0 56 57" fill="none" xmlns="http://www.w3.org/2000/svg">
<path fill-rule="evenodd" clip-rule="evenodd" d="M30.6515 49.865C23.8905 48.7289 17.5052 49.3141 10.7566 49.6221C9.43865 49.6825 8.42258 50.7974 8.48105 52.1115C8.53958 53.4264 9.65935 54.4436 10.9774 54.3841C17.3766 54.0918 23.4418 53.4875 29.8638 54.5653C31.1628 54.7836 32.3958 53.9067 32.6094 52.6096C32.8311 51.3128 31.9504 50.0826 30.6515 49.865Z" fill="black"/>
<path fill-rule="evenodd" clip-rule="evenodd" d="M42.479 35.0306C31.5256 24.7111 17.7206 15.2485 4.02389 8.93743C2.82757 8.38721 1.40872 8.91002 0.860749 10.1046C0.312779 11.2991 0.833109 12.7165 2.02943 13.2667C15.2724 19.3696 28.624 28.5211 39.2093 38.5001C40.1691 39.4018 41.6793 39.3566 42.5797 38.3993C43.48 37.4421 43.4387 35.9324 42.479 35.0306Z" fill="black"/>
<path fill-rule="evenodd" clip-rule="evenodd" d="M53.3292 31.3975C54.2429 21.1414 50.6097 10.9123 45.8881 2.00194C45.2674 0.839834 43.8242 0.396489 42.6672 1.01123C41.5024 1.62735 41.0607 3.07131 41.6735 4.23401C45.977 12.3487 49.4121 21.6334 48.5813 30.9743C48.4642 32.2848 49.4352 33.443 50.7424 33.5596C52.0498 33.6769 53.212 32.7072 53.3292 31.3975Z" fill="black"/>
</svg>
