<svg width="23" height="24" viewBox="0 0 23 24" fill="none" xmlns="http://www.w3.org/2000/svg">
<path fill-rule="evenodd" clip-rule="evenodd" d="M12.0714 21.4499C9.09926 20.7356 6.23713 20.7823 3.22247 20.6967C2.63373 20.6801 2.14426 21.1321 2.12653 21.7057C2.10879 22.2796 2.57342 22.7586 3.16216 22.7756C6.02077 22.8567 8.74103 22.7912 11.5642 23.4691C12.1352 23.6064 12.7133 23.265 12.8516 22.7077C12.9935 22.1507 12.6424 21.5868 12.0714 21.4499Z" fill="white"/>
<path fill-rule="evenodd" clip-rule="evenodd" d="M17.8308 15.3815C13.2981 10.5355 7.46746 5.96945 1.58001 2.77801C1.06575 2.4997 0.416681 2.68098 0.13295 3.18285C-0.150784 3.68471 0.0336589 4.31828 0.547922 4.59659C6.2403 7.68266 11.8795 12.0986 16.2596 16.7846C16.6568 17.2081 17.3307 17.2375 17.7634 16.8504C18.1961 16.4633 18.228 15.8051 17.8308 15.3815Z" fill="white"/>
<path fill-rule="evenodd" clip-rule="evenodd" d="M22.7821 14.1539C23.5304 9.72171 22.2536 5.15326 20.4484 1.12307C20.2108 0.597288 19.583 0.357438 19.0475 0.58723C18.5084 0.817368 18.2636 1.43119 18.4977 1.95698C20.1434 5.62741 21.3634 9.77855 20.6825 13.8153C20.5867 14.3817 20.9804 14.9172 21.5585 15.0104C22.1366 15.104 22.6863 14.7199 22.7821 14.1539Z" fill="white"/>
</svg>
