<svg width="161" height="43" viewBox="0 0 161 43" fill="none" xmlns="http://www.w3.org/2000/svg">
<path d="M40.6097 10.697C40.6097 9.94903 40.1501 9.3139 39.4983 9.05065L22.6338 0.396959H22.6004C22.1198 0.150427 21.5808 0 21 0C20.4192 0 19.8802 0.150427 19.3996 0.396959H19.3662L2.50174 9.05065C1.84989 9.3139 1.39026 9.94903 1.39026 10.697C1.39026 11.4366 1.84154 12.0717 2.48921 12.3433V12.3767L19.3787 21.0054L19.3955 20.997C19.8802 21.2435 20.4192 21.394 21 21.394C21.5808 21.394 22.1198 21.2435 22.6045 20.997L22.6213 21.0054L39.5108 12.3767V12.3433C40.1585 12.0717 40.6097 11.4366 40.6097 10.697Z" fill="#1476FF"/>
<path d="M39.4983 19.7473L36.1972 18.0508C31.0159 20.7041 23.95 24.3102 23.8665 24.3436C22.9472 24.7531 21.9861 24.9579 21 24.9579C20.0097 24.9579 19.0445 24.7489 18.1252 24.3394C18.0458 24.3102 10.9841 20.7041 5.80276 18.0508L2.50174 19.7473C1.84989 20.0105 1.39026 20.6456 1.39026 21.3936C1.39026 22.1332 1.84154 22.7683 2.48921 23.0399V23.0733L19.3787 31.702L19.3955 31.6936C19.8802 31.9401 20.4192 32.0906 21 32.0906C21.5808 32.0906 22.1198 31.9401 22.6045 31.6936L22.6213 31.702L39.5108 23.0733V23.0399C40.1585 22.7683 40.6097 22.1332 40.6097 21.3936C40.6097 20.6456 40.1501 20.0105 39.4983 19.7473Z" fill="#2FA8FF"/>
<path d="M39.4983 30.4445L36.1972 28.748C31.0159 31.4014 23.95 35.0075 23.8665 35.0409C22.9472 35.4504 21.9861 35.6551 21 35.6551C20.0097 35.6551 19.0445 35.4462 18.1252 35.0367C18.0458 35.0075 10.9841 31.4014 5.80276 28.748L2.50174 30.4445C1.84989 30.7078 1.39026 31.3429 1.39026 32.0909C1.39026 32.8305 1.84154 33.4656 2.48921 33.7372V33.7706L19.3787 42.3992L19.3955 42.3909C19.8802 42.6374 20.4192 42.7878 21 42.7878C21.5808 42.7878 22.1198 42.6374 22.6045 42.3909L22.6213 42.3992L39.5108 33.7706V33.7372C40.1585 33.4656 40.6097 32.8305 40.6097 32.0909C40.6097 31.3429 40.1501 30.7078 39.4983 30.4445Z" fill="#3CD0FF"/>
<path d="M64.7244 12.5455H67.8864V23.9489C67.8864 25.1989 67.5909 26.2983 67 27.2472C66.4148 28.196 65.5909 28.9375 64.5284 29.4716C63.4659 30 62.2244 30.2642 60.804 30.2642C59.3778 30.2642 58.1335 30 57.071 29.4716C56.0085 28.9375 55.1847 28.196 54.5994 27.2472C54.0142 26.2983 53.7216 25.1989 53.7216 23.9489V12.5455H56.8835V23.6847C56.8835 24.4119 57.0426 25.0597 57.3608 25.6278C57.6847 26.196 58.1392 26.642 58.7244 26.9659C59.3097 27.2841 60.0028 27.4432 60.804 27.4432C61.6051 27.4432 62.2983 27.2841 62.8835 26.9659C63.4744 26.642 63.929 26.196 64.2472 25.6278C64.5653 25.0597 64.7244 24.4119 64.7244 23.6847V12.5455ZM74.272 22.3295V30H71.1868V16.9091H74.1357V19.1335H74.2891C74.5902 18.4006 75.0703 17.8182 75.7294 17.3864C76.3942 16.9545 77.2152 16.7386 78.1925 16.7386C79.0959 16.7386 79.8828 16.9318 80.5533 17.3182C81.2294 17.7045 81.7521 18.2642 82.1214 18.9972C82.4964 19.7301 82.6811 20.6193 82.6754 21.6648V30H79.5902V22.142C79.5902 21.267 79.3629 20.5824 78.9084 20.0881C78.4595 19.5937 77.8374 19.3466 77.0419 19.3466C76.5021 19.3466 76.022 19.4659 75.6016 19.7045C75.1868 19.9375 74.8601 20.2756 74.6214 20.7188C74.3885 21.1619 74.272 21.6989 74.272 22.3295ZM85.8118 30V16.9091H88.897V30H85.8118ZM87.3629 15.0511C86.8743 15.0511 86.4538 14.8892 86.1016 14.5653C85.7493 14.2358 85.5732 13.8409 85.5732 13.3807C85.5732 12.9148 85.7493 12.5199 86.1016 12.196C86.4538 11.8665 86.8743 11.7017 87.3629 11.7017C87.8572 11.7017 88.2777 11.8665 88.6243 12.196C88.9766 12.5199 89.1527 12.9148 89.1527 13.3807C89.1527 13.8409 88.9766 14.2358 88.6243 14.5653C88.2777 14.8892 87.8572 15.0511 87.3629 15.0511ZM101.692 17.3438C101.612 16.5994 101.277 16.0199 100.686 15.6051C100.101 15.1903 99.3395 14.983 98.402 14.983C97.7429 14.983 97.1776 15.0824 96.706 15.2812C96.2344 15.4801 95.8736 15.75 95.6236 16.0909C95.3736 16.4318 95.2457 16.821 95.2401 17.2585C95.2401 17.6222 95.3224 17.9375 95.4872 18.2045C95.6577 18.4716 95.8878 18.6989 96.1776 18.8864C96.4673 19.0682 96.7884 19.2216 97.1406 19.3466C97.4929 19.4716 97.848 19.5767 98.206 19.6619L99.8423 20.071C100.501 20.2244 101.135 20.4318 101.743 20.6932C102.357 20.9545 102.905 21.2841 103.388 21.6818C103.876 22.0795 104.263 22.5597 104.547 23.1222C104.831 23.6847 104.973 24.3437 104.973 25.0994C104.973 26.1222 104.712 27.0227 104.189 27.8011C103.666 28.5739 102.911 29.179 101.922 29.6165C100.939 30.0483 99.7486 30.2642 98.3509 30.2642C96.9929 30.2642 95.8139 30.054 94.8139 29.6335C93.8196 29.2131 93.0412 28.5994 92.4787 27.7926C91.9219 26.9858 91.6207 26.0028 91.5753 24.8438H94.6861C94.7315 25.4517 94.919 25.9574 95.2486 26.3608C95.5781 26.7642 96.0071 27.0653 96.5355 27.2642C97.0696 27.4631 97.6662 27.5625 98.3253 27.5625C99.0128 27.5625 99.6151 27.4602 100.132 27.2557C100.655 27.0455 101.064 26.7557 101.359 26.3864C101.655 26.0114 101.805 25.5739 101.811 25.0739C101.805 24.6193 101.672 24.2443 101.411 23.9489C101.149 23.6477 100.783 23.3977 100.311 23.1989C99.8452 22.9943 99.2997 22.8125 98.6747 22.6534L96.6889 22.142C95.2514 21.7727 94.1151 21.2131 93.2798 20.4631C92.4503 19.7074 92.0355 18.7045 92.0355 17.4545C92.0355 16.4261 92.3139 15.5256 92.8707 14.7528C93.4332 13.9801 94.1974 13.3807 95.1634 12.9545C96.1293 12.5227 97.223 12.3068 98.4446 12.3068C99.6832 12.3068 100.768 12.5227 101.7 12.9545C102.638 13.3807 103.374 13.9744 103.908 14.7358C104.442 15.4915 104.717 16.3608 104.734 17.3438H101.692ZM113.366 30.2557C112.087 30.2557 110.979 29.9744 110.042 29.4119C109.104 28.8494 108.377 28.0625 107.86 27.0511C107.349 26.0398 107.093 24.858 107.093 23.5057C107.093 22.1534 107.349 20.9687 107.86 19.9517C108.377 18.9347 109.104 18.1449 110.042 17.5824C110.979 17.0199 112.087 16.7386 113.366 16.7386C114.644 16.7386 115.752 17.0199 116.69 17.5824C117.627 18.1449 118.352 18.9347 118.863 19.9517C119.38 20.9687 119.638 22.1534 119.638 23.5057C119.638 24.858 119.38 26.0398 118.863 27.0511C118.352 28.0625 117.627 28.8494 116.69 29.4119C115.752 29.9744 114.644 30.2557 113.366 30.2557ZM113.383 27.7841C114.076 27.7841 114.656 27.5937 115.121 27.2131C115.587 26.8267 115.934 26.3097 116.161 25.6619C116.394 25.0142 116.511 24.2926 116.511 23.4972C116.511 22.696 116.394 21.9716 116.161 21.3239C115.934 20.6705 115.587 20.1506 115.121 19.7642C114.656 19.3778 114.076 19.1847 113.383 19.1847C112.673 19.1847 112.082 19.3778 111.61 19.7642C111.144 20.1506 110.795 20.6705 110.562 21.3239C110.335 21.9716 110.221 22.696 110.221 23.4972C110.221 24.2926 110.335 25.0142 110.562 25.6619C110.795 26.3097 111.144 26.8267 111.61 27.2131C112.082 27.5937 112.673 27.7841 113.383 27.7841ZM127.967 30.2557C126.661 30.2557 125.538 29.9688 124.601 29.3949C123.669 28.821 122.95 28.0284 122.445 27.017C121.945 26 121.695 24.8295 121.695 23.5057C121.695 22.1761 121.95 21.0028 122.462 19.9858C122.973 18.9631 123.695 18.1676 124.626 17.5994C125.564 17.0256 126.672 16.7386 127.95 16.7386C129.013 16.7386 129.953 16.9347 130.771 17.3267C131.595 17.7131 132.251 18.2614 132.74 18.9716C133.229 19.6761 133.507 20.5 133.575 21.4432H130.626C130.507 20.8125 130.223 20.2869 129.774 19.8665C129.331 19.4403 128.737 19.2273 127.993 19.2273C127.362 19.2273 126.808 19.3977 126.331 19.7386C125.854 20.0739 125.482 20.5568 125.214 21.1875C124.953 21.8182 124.822 22.5739 124.822 23.4545C124.822 24.3466 124.953 25.1136 125.214 25.7557C125.476 26.392 125.842 26.8835 126.314 27.2301C126.791 27.571 127.351 27.7415 127.993 27.7415C128.447 27.7415 128.854 27.6562 129.212 27.4858C129.575 27.3097 129.879 27.0568 130.124 26.7273C130.368 26.3977 130.536 25.9972 130.626 25.5256H133.575C133.501 26.4517 133.229 27.2727 132.757 27.9886C132.286 28.6989 131.643 29.2557 130.831 29.6591C130.018 30.0568 129.064 30.2557 127.967 30.2557ZM136.109 30V16.9091H139.194V30H136.109ZM137.66 15.0511C137.171 15.0511 136.751 14.8892 136.398 14.5653C136.046 14.2358 135.87 13.8409 135.87 13.3807C135.87 12.9148 136.046 12.5199 136.398 12.196C136.751 11.8665 137.171 11.7017 137.66 11.7017C138.154 11.7017 138.575 11.8665 138.921 12.196C139.273 12.5199 139.45 12.9148 139.45 13.3807C139.45 13.8409 139.273 14.2358 138.921 14.5653C138.575 14.8892 138.154 15.0511 137.66 15.0511ZM146.134 30.2642C145.304 30.2642 144.557 30.1165 143.892 29.821C143.233 29.5199 142.71 29.0767 142.324 28.4915C141.943 27.9062 141.753 27.1847 141.753 26.3267C141.753 25.5881 141.889 24.9773 142.162 24.4943C142.435 24.0114 142.807 23.625 143.278 23.3352C143.75 23.0455 144.281 22.8267 144.872 22.679C145.469 22.5256 146.085 22.4148 146.722 22.3466C147.489 22.267 148.111 22.196 148.588 22.1335C149.065 22.0653 149.412 21.9631 149.628 21.8267C149.849 21.6847 149.96 21.4659 149.96 21.1705V21.1193C149.96 20.4773 149.77 19.9801 149.389 19.6278C149.009 19.2756 148.46 19.0994 147.744 19.0994C146.989 19.0994 146.389 19.2642 145.946 19.5938C145.509 19.9233 145.213 20.3125 145.06 20.7614L142.179 20.3523C142.406 19.5568 142.781 18.892 143.304 18.358C143.827 17.8182 144.466 17.4148 145.222 17.1477C145.977 16.875 146.813 16.7386 147.727 16.7386C148.358 16.7386 148.986 16.8125 149.611 16.9602C150.236 17.108 150.807 17.3523 151.324 17.6932C151.841 18.0284 152.256 18.4858 152.568 19.0653C152.886 19.6449 153.045 20.3693 153.045 21.2386V30H150.08V28.2017H149.977C149.79 28.5653 149.526 28.9062 149.185 29.2244C148.849 29.5369 148.426 29.7898 147.915 29.983C147.409 30.1705 146.815 30.2642 146.134 30.2642ZM146.935 27.9972C147.554 27.9972 148.091 27.875 148.545 27.6307C149 27.3807 149.349 27.0511 149.594 26.642C149.844 26.233 149.969 25.7869 149.969 25.304V23.7614C149.872 23.8409 149.707 23.9148 149.474 23.983C149.247 24.0511 148.991 24.1108 148.707 24.1619C148.423 24.2131 148.142 24.2585 147.864 24.2983C147.585 24.3381 147.344 24.3722 147.139 24.4006C146.679 24.4631 146.267 24.5653 145.903 24.7074C145.54 24.8494 145.253 25.0483 145.043 25.304C144.832 25.554 144.727 25.8778 144.727 26.2756C144.727 26.8438 144.935 27.2727 145.349 27.5625C145.764 27.8523 146.293 27.9972 146.935 27.9972ZM159.233 12.5455V30H156.148V12.5455H159.233Z" fill="#0B0E2C"/>
</svg>
