<svg width="88" height="77" viewBox="0 0 88 77" fill="none" xmlns="http://www.w3.org/2000/svg">
<g clip-path="url(#clip0_1_615)">
<path d="M65.747 0.801758C55.4184 18.6615 49.7117 27.5677 43.9579 27.5677C38.204 27.5677 32.4973 18.6615 22.2159 0.801758C32.4973 18.6615 37.4023 28.0861 34.5253 33.034C31.6484 37.982 21.0368 38.5003 0.426788 38.5003C21.7914 38.5003 32.403 39.0187 34.8083 44.485C37.0721 49.5743 32.1672 58.9518 22.2159 76.1989C32.5445 58.3392 38.2512 49.4329 44.005 49.4329C49.7589 49.4329 55.4655 58.3392 65.7941 76.1989C54.8524 57.2082 50.0418 47.7836 54.0978 43.0713C57.6822 38.9244 68.2466 38.5003 87.5832 38.5003C65.7941 38.5003 55.1826 37.9348 53.0602 32.1387C51.1266 26.9551 56.0315 17.6247 65.747 0.801758Z" fill="black"/>
</g>
<defs>
<clipPath id="clip0_1_615">
<rect width="87.1093" height="75.3971" fill="white" transform="translate(0.426758 0.801758)"/>
</clipPath>
</defs>
</svg>
