<svg width="46" height="50" viewBox="0 0 46 50" fill="none" xmlns="http://www.w3.org/2000/svg">
<path fill-rule="evenodd" clip-rule="evenodd" d="M15.0721 46.0851C10.7708 44.878 6.26742 44.2691 1.89887 43.7113C0.95795 43.5944 0.08437 44.247 0.0171614 45.1664C-0.117256 46.0865 0.555224 46.9279 1.42893 47.0448C5.66307 47.5818 10.0312 48.1565 14.131 49.3185C15.0047 49.5705 15.946 49.0517 16.2148 48.1592C16.4836 47.2673 15.9458 46.3378 15.0721 46.0851Z" fill="black"/>
<path fill-rule="evenodd" clip-rule="evenodd" d="M28.1099 28.9722C21.1874 21.9079 13.3912 15.753 6.60318 8.49917C5.9983 7.82171 4.92297 7.78541 4.25088 8.41785C3.5788 9.05095 3.51185 10.1155 4.18394 10.793C10.972 18.0676 18.7682 24.2428 25.6907 31.3279C26.3628 31.9892 27.4378 31.9986 28.1099 31.348C28.7148 30.6981 28.782 29.6336 28.1099 28.9722Z" fill="black"/>
<path fill-rule="evenodd" clip-rule="evenodd" d="M41.082 1.79978C41.2836 5.84304 41.4848 9.8863 41.6865 13.9302C41.6865 14.8564 42.4934 15.5715 43.4343 15.5264C44.3752 15.4807 45.0469 14.6924 45.0469 13.7656C44.8453 9.7156 44.644 5.66628 44.4424 1.61697C44.3752 0.690833 43.5686 -0.0195612 42.6276 0.0308452C41.7539 0.0812516 41.0148 0.874315 41.082 1.79978Z" fill="black"/>
</svg>
