<svg width="340" height="20" viewBox="0 0 340 20" fill="none" xmlns="http://www.w3.org/2000/svg">
<path fill-rule="evenodd" clip-rule="evenodd" d="M144.402 1.8657C128.428 2.50506 112.643 3.29121 97.249 4.15067C75.4574 5.3665 53.6744 6.62427 32.0226 8.61571C25.2071 9.24459 18.2859 9.64285 11.513 10.429C7.26139 10.9216 1.62388 11.6237 0.884026 11.7705C0.497052 11.8543 0.328229 11.9802 0.273678 12.0221C-0.109886 12.3156 -0.0398998 12.5985 0.176601 12.8186C0.263542 12.9129 0.48339 13.1436 1.09368 13.175C41.9083 15.3237 83.6435 11.1312 124.508 10.691C195.373 9.93633 268.387 12.934 338.69 19.4743C339.303 19.5267 339.9 19.2646 339.985 18.8768C340.088 18.4995 339.644 18.1326 339.031 18.0802C268.608 11.5294 195.475 8.52127 124.473 9.2864C86.3898 9.69517 47.5544 13.3742 9.41787 12.1164C10.2941 12.0116 11.1533 11.9068 11.9375 11.8124C18.6831 11.0263 25.5753 10.6386 32.3636 10.0097C53.9693 8.01823 75.708 6.76048 97.4706 5.55513C124.474 4.04583 152.653 2.74614 181.053 2.13822C191.214 2.23255 201.34 2.32693 211.466 2.44222C233.371 2.69377 255.38 3.42747 277.234 4.41271C283.815 4.71666 290.395 5.03108 296.975 5.30359C299.157 5.39792 304.783 5.67039 305.567 5.64943C306.539 5.62846 306.726 5.12541 306.743 5.04156C306.794 4.85289 306.76 4.59085 306.283 4.37074C306.232 4.3393 305.925 4.23442 305.243 4.17153C265.506 0.461156 223.075 -0.157142 181.088 0.733766C136.799 0.345959 92.3393 0.178182 48.163 0C47.5305 0 47.014 0.314484 47.0089 0.702292C47.0055 1.0901 47.5151 1.40459 48.1476 1.41508C80.1351 1.54085 112.285 1.66655 144.402 1.8657Z" fill="black"/>
</svg>
